<svg xmlns="http://www.w3.org/2000/svg" xmlns:xlink="http://www.w3.org/1999/xlink" xmlns:inkscape="http://www.inkscape.org/namespaces/inkscape" version="1.1" width="403.302" height="73.081" viewBox="0 0 403.302 73.081">
<path transform="matrix(1,0,0,-1,45.40261,38.78261)" d="M25.20193 28.89949H-25.20193C-26.85265 28.89949-28.19077 27.56136-28.19077 25.91066V-25.91066C-28.19077-27.56136-26.85265-28.89949-25.20193-28.89949H25.20193C26.85265-28.89949 28.19077-27.56136 28.19077-25.91066V25.91066C28.19077 27.56136 26.85265 28.89949 25.20193 28.89949ZM-28.19077-28.89949" fill="#7f807f" fill-opacity=".3"/>
<path transform="matrix(1,0,0,-1,43.161,36.541)" d="M25.20193 28.89949H-25.20193C-26.85265 28.89949-28.19077 27.56136-28.19077 25.91066V-25.91066C-28.19077-27.56136-26.85265-28.89949-25.20193-28.89949H25.20193C26.85265-28.89949 28.19077-27.56136 28.19077-25.91066V25.91066C28.19077 27.56136 26.85265 28.89949 25.20193 28.89949ZM-28.19077-28.89949" fill="#ffffff"/>
<path transform="matrix(1,0,0,-1,43.161,36.541)" stroke-width=".79701" stroke-linecap="butt" stroke-miterlimit="10" stroke-linejoin="miter" fill="none" stroke="#333333" d="M25.20193 28.89949H-25.20193C-26.85265 28.89949-28.19077 27.56136-28.19077 25.91066V-25.91066C-28.19077-27.56136-26.85265-28.89949-25.20193-28.89949H25.20193C26.85265-28.89949 28.19077-27.56136 28.19077-25.91066V25.91066C28.19077 27.56136 26.85265 28.89949 25.20193 28.89949ZM-28.19077-28.89949"/>
<path transform="matrix(1,0,0,-1,22.609,29.453999)" d="M4.25204 14.17339C4.25204 16.52176 2.34836 18.42545 0 18.42545-2.34836 18.42545-4.25204 16.52176-4.25204 14.17339-4.25204 11.82501-2.34836 9.92134 0 9.92134 2.34836 9.92134 4.25204 11.82501 4.25204 14.17339ZM0 14.17339" fill="#e6e6ff"/>
<path transform="matrix(1,0,0,-1,22.609,29.453999)" stroke-width=".79701" stroke-linecap="butt" stroke-miterlimit="10" stroke-linejoin="miter" fill="none" stroke="#333333" d="M4.25204 14.17339C4.25204 16.52176 2.34836 18.42545 0 18.42545-2.34836 18.42545-4.25204 16.52176-4.25204 14.17339-4.25204 11.82501-2.34836 9.92134 0 9.92134 2.34836 9.92134 4.25204 11.82501 4.25204 14.17339ZM0 14.17339"/>
<text xml:space="preserve" transform="matrix(1 0 -0 1 -.0000019073487 73.08099)" font-size="8.9664" font-family="NimbusRomNo9L" font-weight="bold"><tspan y="-46.823" x="21.489">.</tspan><tspan y="-42.838" x="21.489">.</tspan><tspan y="-38.853" x="21.489">.</tspan></text>
<path transform="matrix(1,0,0,-1,22.609,29.453999)" d="M4.25204-14.17339C4.25204-11.82501 2.34836-9.92134 0-9.92134-2.34836-9.92134-4.25204-11.82501-4.25204-14.17339-4.25204-16.52176-2.34836-18.42545 0-18.42545 2.34836-18.42545 4.25204-16.52176 4.25204-14.17339ZM0-14.17339" fill="#e6e6ff"/>
<path transform="matrix(1,0,0,-1,22.609,29.453999)" stroke-width=".79701" stroke-linecap="butt" stroke-miterlimit="10" stroke-linejoin="miter" fill="none" stroke="#333333" d="M4.25204-14.17339C4.25204-11.82501 2.34836-9.92134 0-9.92134-2.34836-9.92134-4.25204-11.82501-4.25204-14.17339-4.25204-16.52176-2.34836-18.42545 0-18.42545 2.34836-18.42545 4.25204-16.52176 4.25204-14.17339ZM0-14.17339"/>
<path transform="matrix(1,0,0,-1,22.609,29.453999)" d="M4.25204-28.3468C4.25204-25.99843 2.34836-24.09474 0-24.09474-2.34836-24.09474-4.25204-25.99843-4.25204-28.3468-4.25204-30.69518-2.34836-32.59886 0-32.59886 2.34836-32.59886 4.25204-30.69518 4.25204-28.3468ZM0-28.3468" fill="#ffecd9"/>
<path transform="matrix(1,0,0,-1,22.609,29.453999)" stroke-width=".79701" stroke-linecap="butt" stroke-miterlimit="10" stroke-linejoin="miter" fill="none" stroke="#333333" d="M4.25204-28.3468C4.25204-25.99843 2.34836-24.09474 0-24.09474-2.34836-24.09474-4.25204-25.99843-4.25204-28.3468-4.25204-30.69518-2.34836-32.59886 0-32.59886 2.34836-32.59886 4.25204-30.69518 4.25204-28.3468ZM0-28.3468"/>
<path transform="matrix(1,0,0,-1,22.609,29.453999)" d="M22.67752 14.17339C22.67752 16.52176 20.77383 18.42545 18.42546 18.42545 16.07709 18.42545 14.1734 16.52176 14.1734 14.17339 14.1734 11.82501 16.07709 9.92134 18.42546 9.92134 20.77383 9.92134 22.67752 11.82501 22.67752 14.17339ZM18.42546 14.17339" fill="#e6ffe6"/>
<path transform="matrix(1,0,0,-1,22.609,29.453999)" stroke-width=".79701" stroke-linecap="butt" stroke-miterlimit="10" stroke-linejoin="miter" fill="none" stroke="#333333" d="M22.67752 14.17339C22.67752 16.52176 20.77383 18.42545 18.42546 18.42545 16.07709 18.42545 14.1734 16.52176 14.1734 14.17339 14.1734 11.82501 16.07709 9.92134 18.42546 9.92134 20.77383 9.92134 22.67752 11.82501 22.67752 14.17339ZM18.42546 14.17339"/>
<text xml:space="preserve" transform="matrix(1 0 -0 1 0 73.08099)" font-size="8.9664" font-family="NimbusRomNo9L" font-weight="bold"><tspan y="-46.823" x="39.914">.</tspan><tspan y="-42.838" x="39.914">.</tspan><tspan y="-38.853" x="39.914">.</tspan></text>
<path transform="matrix(1,0,0,-1,22.609,29.453999)" d="M22.67752-14.17339C22.67752-11.82501 20.77383-9.92134 18.42546-9.92134 16.07709-9.92134 14.1734-11.82501 14.1734-14.17339 14.1734-16.52176 16.07709-18.42545 18.42546-18.42545 20.77383-18.42545 22.67752-16.52176 22.67752-14.17339ZM18.42546-14.17339" fill="#e6ffe6"/>
<path transform="matrix(1,0,0,-1,22.609,29.453999)" stroke-width=".79701" stroke-linecap="butt" stroke-miterlimit="10" stroke-linejoin="miter" fill="none" stroke="#333333" d="M22.67752-14.17339C22.67752-11.82501 20.77383-9.92134 18.42546-9.92134 16.07709-9.92134 14.1734-11.82501 14.1734-14.17339 14.1734-16.52176 16.07709-18.42545 18.42546-18.42545 20.77383-18.42545 22.67752-16.52176 22.67752-14.17339ZM18.42546-14.17339"/>
<path transform="matrix(1,0,0,-1,22.609,29.453999)" d="M22.67752-28.3468C22.67752-25.99843 20.77383-24.09474 18.42546-24.09474 16.07709-24.09474 14.1734-25.99843 14.1734-28.3468 14.1734-30.69518 16.07709-32.59886 18.42546-32.59886 20.77383-32.59886 22.67752-30.69518 22.67752-28.3468ZM18.42546-28.3468" fill="#ffecd9"/>
<path transform="matrix(1,0,0,-1,22.609,29.453999)" stroke-width=".79701" stroke-linecap="butt" stroke-miterlimit="10" stroke-linejoin="miter" fill="none" stroke="#333333" d="M22.67752-28.3468C22.67752-25.99843 20.77383-24.09474 18.42546-24.09474 16.07709-24.09474 14.1734-25.99843 14.1734-28.3468 14.1734-30.69518 16.07709-32.59886 18.42546-32.59886 20.77383-32.59886 22.67752-30.69518 22.67752-28.3468ZM18.42546-28.3468"/>
<text xml:space="preserve" transform="matrix(1 0 -0 1 0 73.08099)" font-size="8.9664" font-family="CMSY10" font-style="italic"><tspan y="-41.668" x="47.154 50.632966 54.120897">&#x00b7;&#x00b7;&#x00b7;</tspan></text>
<path transform="matrix(1,0,0,-1,22.609,29.453999)" d="M45.35483 14.17339C45.35483 16.52176 43.45114 18.42545 41.10277 18.42545 38.7544 18.42545 36.85071 16.52176 36.85071 14.17339 36.85071 11.82501 38.7544 9.92134 41.10277 9.92134 43.45114 9.92134 45.35483 11.82501 45.35483 14.17339ZM41.10277 14.17339" fill="#ffe6e6"/>
<path transform="matrix(1,0,0,-1,22.609,29.453999)" stroke-width=".79701" stroke-linecap="butt" stroke-miterlimit="10" stroke-linejoin="miter" fill="none" stroke="#333333" d="M45.35483 14.17339C45.35483 16.52176 43.45114 18.42545 41.10277 18.42545 38.7544 18.42545 36.85071 16.52176 36.85071 14.17339 36.85071 11.82501 38.7544 9.92134 41.10277 9.92134 43.45114 9.92134 45.35483 11.82501 45.35483 14.17339ZM41.10277 14.17339"/>
<text xml:space="preserve" transform="matrix(1 0 -0 1 -.0000038146974 73.08099)" font-size="8.9664" font-family="NimbusRomNo9L" font-weight="bold"><tspan y="-46.823" x="62.591">.</tspan><tspan y="-42.838" x="62.591">.</tspan><tspan y="-38.853" x="62.591">.</tspan></text>
<path transform="matrix(1,0,0,-1,22.609,29.453999)" d="M45.35483-14.17339C45.35483-11.82501 43.45114-9.92134 41.10277-9.92134 38.7544-9.92134 36.85071-11.82501 36.85071-14.17339 36.85071-16.52176 38.7544-18.42545 41.10277-18.42545 43.45114-18.42545 45.35483-16.52176 45.35483-14.17339ZM41.10277-14.17339" fill="#ffe6e6"/>
<path transform="matrix(1,0,0,-1,22.609,29.453999)" stroke-width=".79701" stroke-linecap="butt" stroke-miterlimit="10" stroke-linejoin="miter" fill="none" stroke="#333333" d="M45.35483-14.17339C45.35483-11.82501 43.45114-9.92134 41.10277-9.92134 38.7544-9.92134 36.85071-11.82501 36.85071-14.17339 36.85071-16.52176 38.7544-18.42545 41.10277-18.42545 43.45114-18.42545 45.35483-16.52176 45.35483-14.17339ZM41.10277-14.17339"/>
<path transform="matrix(1,0,0,-1,22.609,29.453999)" stroke-width=".3985" stroke-linecap="butt" stroke-miterlimit="10" stroke-linejoin="miter" fill="none" stroke="#a6a6a6" d="M4.65056 14.17339H11.06882"/>
<path transform="matrix(1,0,0,-1,32.13189,15.280608)" d="M3.68454 0 .6434 1.14696 1.64552 0 .6434-1.14696Z" fill="#a6a6a6"/>
<path transform="matrix(1,0,0,-1,32.13189,15.280608)" stroke-width=".3985" stroke-linecap="butt" stroke-miterlimit="10" stroke-linejoin="miter" fill="none" stroke="#a6a6a6" d="M3.68454 0 .6434 1.14696 1.64552 0 .6434-1.14696Z"/>
<path transform="matrix(1,0,0,-1,22.609,29.453999)" stroke-width=".3985" stroke-linecap="butt" stroke-miterlimit="10" stroke-linejoin="miter" fill="none" stroke="#a6a6a6" d="M2.53447 10.27425 14.41623-8.0054"/>
<path transform="matrix(.54498,.83842,.83842,-.54498,36.18272,36.163259)" d="M3.68454 0 .6434 1.14696 1.64552 0 .6434-1.14696Z" fill="#a6a6a6"/>
<path transform="matrix(.54498,.83842,.83842,-.54498,36.18272,36.163259)" stroke-width=".3985" stroke-linecap="butt" stroke-miterlimit="10" stroke-linejoin="miter" fill="none" stroke="#a6a6a6" d="M3.68454 0 .6434 1.14696 1.64552 0 .6434-1.14696Z"/>
<path transform="matrix(1,0,0,-1,22.609,29.453999)" stroke-width=".3985" stroke-linecap="butt" stroke-miterlimit="10" stroke-linejoin="miter" fill="none" stroke="#a6a6a6" d="M2.53447-10.27425 14.41623 8.0054"/>
<path transform="matrix(.54498,-.83842,-.83842,-.54498,36.18272,22.74474)" d="M3.68454 0 .6434 1.14696 1.64552 0 .6434-1.14696Z" fill="#a6a6a6"/>
<path transform="matrix(.54498,-.83842,-.83842,-.54498,36.18272,22.74474)" stroke-width=".3985" stroke-linecap="butt" stroke-miterlimit="10" stroke-linejoin="miter" fill="none" stroke="#a6a6a6" d="M3.68454 0 .6434 1.14696 1.64552 0 .6434-1.14696Z"/>
<path transform="matrix(1,0,0,-1,22.609,29.453999)" stroke-width=".3985" stroke-linecap="butt" stroke-miterlimit="10" stroke-linejoin="miter" fill="none" stroke="#a6a6a6" d="M4.65056-14.17339H11.06882"/>
<path transform="matrix(1,0,0,-1,32.13189,43.627389)" d="M3.68454 0 .6434 1.14696 1.64552 0 .6434-1.14696Z" fill="#a6a6a6"/>
<path transform="matrix(1,0,0,-1,32.13189,43.627389)" stroke-width=".3985" stroke-linecap="butt" stroke-miterlimit="10" stroke-linejoin="miter" fill="none" stroke="#a6a6a6" d="M3.68454 0 .6434 1.14696 1.64552 0 .6434-1.14696Z"/>
<path transform="matrix(1,0,0,-1,22.609,29.453999)" stroke-width=".3985" stroke-linecap="butt" stroke-miterlimit="10" stroke-linejoin="miter" fill="none" stroke="#a6a6a6" d="M1.8489-24.07994 15.5007 7.4237"/>
<path transform="matrix(.39757,-.9175,-.9175,-.39757,37.4951,23.448658)" d="M3.68454 0 .6434 1.14696 1.64552 0 .6434-1.14696Z" fill="#a6a6a6"/>
<path transform="matrix(.39757,-.9175,-.9175,-.39757,37.4951,23.448658)" stroke-width=".3985" stroke-linecap="butt" stroke-miterlimit="10" stroke-linejoin="miter" fill="none" stroke="#a6a6a6" d="M3.68454 0 .6434 1.14696 1.64552 0 .6434-1.14696Z"/>
<path transform="matrix(1,0,0,-1,22.609,29.453999)" stroke-width=".3985" stroke-linecap="butt" stroke-miterlimit="10" stroke-linejoin="miter" fill="none" stroke="#a6a6a6" d="M3.68596-25.51144 12.5947-18.65858"/>
<path transform="matrix(.79259,-.60968,-.60968,-.79259,33.97842,49.0551)" d="M3.68454 0 .6434 1.14696 1.64552 0 .6434-1.14696Z" fill="#a6a6a6"/>
<path transform="matrix(.79259,-.60968,-.60968,-.79259,33.97842,49.0551)" stroke-width=".3985" stroke-linecap="butt" stroke-miterlimit="10" stroke-linejoin="miter" fill="none" stroke="#a6a6a6" d="M3.68454 0 .6434 1.14696 1.64552 0 .6434-1.14696Z"/>
<path transform="matrix(1,0,0,-1,22.609,29.453999)" stroke-width=".3985" stroke-linecap="butt" stroke-miterlimit="10" stroke-linejoin="miter" fill="none" stroke="#a6a6a6" d="M21.12833 10.38928 23.93935 6.45392"/>
<path transform="matrix(.5812,.81367,.81367,-.5812,45.649858,21.742209)" d="M3.68454 0 .6434 1.14696 1.64552 0 .6434-1.14696Z" fill="#a6a6a6"/>
<path transform="matrix(.5812,.81367,.81367,-.5812,45.649858,21.742209)" stroke-width=".3985" stroke-linecap="butt" stroke-miterlimit="10" stroke-linejoin="miter" fill="none" stroke="#a6a6a6" d="M3.68454 0 .6434 1.14696 1.64552 0 .6434-1.14696Z"/>
<path transform="matrix(1,0,0,-1,22.609,29.453999)" stroke-width=".3985" stroke-linecap="butt" stroke-miterlimit="10" stroke-linejoin="miter" fill="none" stroke="#a6a6a6" d="M21.12833-10.38928 23.93935-6.45392"/>
<path transform="matrix(.5812,-.81367,-.81367,-.5812,45.649858,37.165788)" d="M3.68454 0 .6434 1.14696 1.64552 0 .6434-1.14696Z" fill="#a6a6a6"/>
<path transform="matrix(.5812,-.81367,-.81367,-.5812,45.649858,37.165788)" stroke-width=".3985" stroke-linecap="butt" stroke-miterlimit="10" stroke-linejoin="miter" fill="none" stroke="#a6a6a6" d="M3.68454 0 .6434 1.14696 1.64552 0 .6434-1.14696Z"/>
<path transform="matrix(1,0,0,-1,22.609,29.453999)" stroke-width=".3985" stroke-linecap="butt" stroke-miterlimit="10" stroke-linejoin="miter" fill="none" stroke="#a6a6a6" d="M19.98953-23.9674 24.60205-11.05243"/>
<path transform="matrix(.33632,-.9417,-.9417,-.33632,46.69112,41.962209)" d="M3.68454 0 .6434 1.14696 1.64552 0 .6434-1.14696Z" fill="#a6a6a6"/>
<path transform="matrix(.33632,-.9417,-.9417,-.33632,46.69112,41.962209)" stroke-width=".3985" stroke-linecap="butt" stroke-miterlimit="10" stroke-linejoin="miter" fill="none" stroke="#a6a6a6" d="M3.68454 0 .6434 1.14696 1.64552 0 .6434-1.14696Z"/>
<path transform="matrix(1,0,0,-1,22.609,29.453999)" stroke-width=".3985" stroke-linecap="butt" stroke-miterlimit="10" stroke-linejoin="miter" fill="none" stroke="#a6a6a6" d="M34.01628 4.25204 36.82715 8.18736"/>
<path transform="matrix(.58119,-.81369,-.81369,-.58119,58.53768,22.524529)" d="M3.68454 0 .6434 1.14696 1.64552 0 .6434-1.14696Z" fill="#a6a6a6"/>
<path transform="matrix(.58119,-.81369,-.81369,-.58119,58.53768,22.524529)" stroke-width=".3985" stroke-linecap="butt" stroke-miterlimit="10" stroke-linejoin="miter" fill="none" stroke="#a6a6a6" d="M3.68454 0 .6434 1.14696 1.64552 0 .6434-1.14696Z"/>
<path transform="matrix(1,0,0,-1,22.609,29.453999)" stroke-width=".3985" stroke-linecap="butt" stroke-miterlimit="10" stroke-linejoin="miter" fill="none" stroke="#a6a6a6" d="M34.01628-4.25204 36.82715-8.18736"/>
<path transform="matrix(.58119,.81369,.81369,-.58119,58.53768,36.38347)" d="M3.68454 0 .6434 1.14696 1.64552 0 .6434-1.14696Z" fill="#a6a6a6"/>
<path transform="matrix(.58119,.81369,.81369,-.58119,58.53768,36.38347)" stroke-width=".3985" stroke-linecap="butt" stroke-miterlimit="10" stroke-linejoin="miter" fill="none" stroke="#a6a6a6" d="M3.68454 0 .6434 1.14696 1.64552 0 .6434-1.14696Z"/>
<path transform="matrix(1,0,0,-1,45.40261,38.78261)" d="M125.6721 7.11037H114.1822C112.5315 7.11037 111.19337 5.77225 111.19337 4.12154V-4.12154C111.19337-5.77225 112.5315-7.11037 114.1822-7.11037H125.6721C127.32281-7.11037 128.66094-5.77225 128.66094-4.12154V4.12154C128.66094 5.77225 127.32281 7.11037 125.6721 7.11037ZM111.19337-7.11037" fill="#7f807f" fill-opacity=".3"/>
<path transform="matrix(1,0,0,-1,43.161,36.541)" d="M125.6721 7.11037H114.1822C112.5315 7.11037 111.19337 5.77225 111.19337 4.12154V-4.12154C111.19337-5.77225 112.5315-7.11037 114.1822-7.11037H125.6721C127.32281-7.11037 128.66094-5.77225 128.66094-4.12154V4.12154C128.66094 5.77225 127.32281 7.11037 125.6721 7.11037ZM111.19337-7.11037" fill="#ffffff"/>
<path transform="matrix(1,0,0,-1,43.161,36.541)" stroke-width=".79701" stroke-linecap="butt" stroke-miterlimit="10" stroke-linejoin="miter" fill="none" stroke="#333333" d="M125.6721 7.11037H114.1822C112.5315 7.11037 111.19337 5.77225 111.19337 4.12154V-4.12154C111.19337-5.77225 112.5315-7.11037 114.1822-7.11037H125.6721C127.32281-7.11037 128.66094-5.77225 128.66094-4.12154V4.12154C128.66094 5.77225 127.32281 7.11037 125.6721 7.11037ZM111.19337-7.11037"/>
<text xml:space="preserve" transform="matrix(1 0 -0 1 0 73.081)" font-size="8.9664" font-family="StandardSymL"><tspan y="-34.332" x="157.673">&#x03a6;</tspan></text>
<text xml:space="preserve" transform="matrix(1 0 -0 1 0 73.081)" font-size="6.9738" font-family="NimbusRomNo9L"><tspan y="-32.751" x="164.514">1</tspan></text>
<path transform="matrix(1,0,0,-1,45.40261,38.78261)" d="M125.32693 35.16876H114.52736C112.87666 35.16876 111.53853 33.83064 111.53853 32.17993V25.06961C111.53853 23.4189 112.87666 22.08078 114.52736 22.08078H125.32693C126.97765 22.08078 128.31577 23.4189 128.31577 25.06961V32.17993C128.31577 33.83064 126.97765 35.16876 125.32693 35.16876ZM111.53853 22.08078" fill="#7f807f" fill-opacity=".3"/>
<path transform="matrix(1,0,0,-1,43.161,36.541)" d="M125.32693 35.16876H114.52736C112.87666 35.16876 111.53853 33.83064 111.53853 32.17993V25.06961C111.53853 23.4189 112.87666 22.08078 114.52736 22.08078H125.32693C126.97765 22.08078 128.31577 23.4189 128.31577 25.06961V32.17993C128.31577 33.83064 126.97765 35.16876 125.32693 35.16876ZM111.53853 22.08078" fill="#e6e6ff"/>
<path transform="matrix(1,0,0,-1,43.161,36.541)" stroke-width=".79701" stroke-linecap="butt" stroke-miterlimit="10" stroke-linejoin="miter" fill="none" stroke="#333333" d="M125.32693 35.16876H114.52736C112.87666 35.16876 111.53853 33.83064 111.53853 32.17993V25.06961C111.53853 23.4189 112.87666 22.08078 114.52736 22.08078H125.32693C126.97765 22.08078 128.31577 23.4189 128.31577 25.06961V32.17993C128.31577 33.83064 126.97765 35.16876 125.32693 35.16876ZM111.53853 22.08078"/>
<text xml:space="preserve" transform="matrix(1 0 -0 1 0 73.081)" font-size="8.9664" font-family="StandardSymL" font-style="italic"><tspan y="-63.963" x="158.018">&#x03c8;</tspan></text>
<text xml:space="preserve" transform="matrix(1 0 -0 1 0 73.081)" font-size="6.9738" font-family="NimbusRomNo9L"><tspan y="-62.382" x="164.169">1</tspan></text>
<path transform="matrix(1,0,0,-1,45.40261,38.78261)" d="M188.9864 0C188.9864 3.91391 185.81365 7.08669 181.89972 7.08669 177.98581 7.08669 174.81304 3.91391 174.81304 0 174.81304-3.91391 177.98581-7.08669 181.89972-7.08669 185.81365-7.08669 188.9864-3.91391 188.9864 0ZM181.89972 0" fill="#7f807f" fill-opacity=".3"/>
<path transform="matrix(1,0,0,-1,43.161,36.541)" d="M188.9864 0C188.9864 3.91391 185.81365 7.08669 181.89972 7.08669 177.98581 7.08669 174.81304 3.91391 174.81304 0 174.81304-3.91391 177.98581-7.08669 181.89972-7.08669 185.81365-7.08669 188.9864-3.91391 188.9864 0ZM181.89972 0" fill="#ffffff"/>
<path transform="matrix(1,0,0,-1,43.161,36.541)" stroke-width=".79701" stroke-linecap="butt" stroke-miterlimit="10" stroke-linejoin="miter" fill="none" stroke="#333333" d="M188.9864 0C188.9864 3.91391 185.81365 7.08669 181.89972 7.08669 177.98581 7.08669 174.81304 3.91391 174.81304 0 174.81304-3.91391 177.98581-7.08669 181.89972-7.08669 185.81365-7.08669 188.9864-3.91391 188.9864 0ZM181.89972 0"/>
<text fill="#191919" xml:space="preserve" transform="matrix(1 0 -0 1 -.000015258789 73.081)" font-size="7.9701" font-family="CMR10"><tspan y="-34.55" x="221.962">+</tspan></text>
<path transform="matrix(1,0,0,-1,43.161,36.541)" stroke-width=".79701" stroke-linecap="butt" stroke-dasharray=".79701,1.99255" stroke-miterlimit="10" stroke-linejoin="miter" fill="none" stroke="#4c4d4c" d="M186.72098 36.14223H83.29648C80.5453 36.14223 78.3151 33.91202 78.3151 31.16084V-31.16084C78.3151-33.91202 80.5453-36.14223 83.29648-36.14223H186.72098C189.47217-36.14223 191.70236-33.91202 191.70236-31.16084V31.16084C191.70236 33.91202 189.47217 36.14223 186.72098 36.14223ZM78.3151-36.14223"/>
<path transform="matrix(1,0,0,-1,43.161,36.541)" stroke-width=".79701" stroke-linecap="butt" stroke-miterlimit="10" stroke-linejoin="miter" fill="none" stroke="#333333" d="M82.44806 0V28.62477H106.68456"/>
<path transform="matrix(1,0,0,-1,147.21434,7.916231)" d="M5.95174 0 1.28694 1.76237 2.83046 0 1.28694-1.76237Z" fill="#333333"/>
<path transform="matrix(1,0,0,-1,147.21434,7.916231)" stroke-width=".79701" stroke-linecap="butt" stroke-miterlimit="10" stroke-linejoin="miter" fill="none" stroke="#333333" d="M5.95174 0 1.28694 1.76237 2.83046 0 1.28694-1.76237Z"/>
<path transform="matrix(1,0,0,-1,43.161,36.541)" stroke-width=".79701" stroke-linecap="butt" stroke-miterlimit="10" stroke-linejoin="miter" fill="none" stroke="#333333" d="M119.92715 21.68227V11.96434"/>
<path transform="matrix(0,1,1,0,163.08815,21.94543)" d="M5.95174 0 1.28694 1.76237 2.83046 0 1.28694-1.76237Z" fill="#333333"/>
<path transform="matrix(0,1,1,0,163.08815,21.94543)" stroke-width=".79701" stroke-linecap="butt" stroke-miterlimit="10" stroke-linejoin="miter" fill="none" stroke="#333333" d="M5.95174 0 1.28694 1.76237 2.83046 0 1.28694-1.76237Z"/>
<text fill="#191919" xml:space="preserve" transform="matrix(1 0 -0 1 0 73.08099)" font-size="6.9738" font-family="StandardSymL" font-style="italic"><tspan y="-49.392" x="169.441">&#x03c8;</tspan></text>
<text fill="#191919" xml:space="preserve" transform="matrix(1 0 -0 1 0 73.08099)" font-size="4.9813" font-family="NimbusRomNo9L"><tspan y="-48.345998" x="174.22499">1</tspan></text>
<text fill="#191919" xml:space="preserve" transform="matrix(1 0 -0 1 0 73.08099)" font-size="6.9738" font-family="CMR10"><tspan y="-49.392" x="177.21399">(</tspan></text>
<text fill="#191919" xml:space="preserve" transform="matrix(1 0 -0 1 0 73.08099)" font-size="6.9738" font-family="StandardSymL" font-style="italic"><tspan y="-49.392" x="179.91899">&#x03ba;</tspan></text>
<text fill="#191919" xml:space="preserve" transform="matrix(1 0 -0 1 0 73.08099)" font-size="4.9813" font-family="NimbusRomNo9L"><tspan y="-48.345998" x="183.74799">1</tspan></text>
<text fill="#191919" xml:space="preserve" transform="matrix(1 0 -0 1 0 73.08099)" font-size="6.9738" font-family="CMR10"><tspan y="-49.392" x="186.73699">)</tspan></text>
<path transform="matrix(1,0,0,-1,43.161,36.541)" stroke-width=".79701" stroke-linecap="butt" stroke-miterlimit="10" stroke-linejoin="miter" fill="none" stroke="#333333" d="M129.05944 0H169.95906"/>
<path transform="matrix(1,0,0,-1,210.48883,36.541)" d="M5.95174 0 1.28694 1.76237 2.83046 0 1.28694-1.76237Z" fill="#333333"/>
<path transform="matrix(1,0,0,-1,210.48883,36.541)" stroke-width=".79701" stroke-linecap="butt" stroke-miterlimit="10" stroke-linejoin="miter" fill="none" stroke="#333333" d="M5.95174 0 1.28694 1.76237 2.83046 0 1.28694-1.76237Z"/>
<text fill="#191919" xml:space="preserve" transform="matrix(1 0 -0 1 0 73.081)" font-size="6.9738" font-family="StandardSymL"><tspan y="-24.955" x="173.37">&#x03a6;</tspan></text>
<text fill="#191919" xml:space="preserve" transform="matrix(1 0 -0 1 0 73.081)" font-size="4.9813" font-family="NimbusRomNo9L"><tspan y="-23.909" x="178.691">1</tspan></text>
<text fill="#191919" xml:space="preserve" transform="matrix(1 0 -0 1 0 73.081)" font-size="6.9738" font-family="CMR10"><tspan y="-24.955" x="181.68">(</tspan></text>
<text fill="#191919" xml:space="preserve" transform="matrix(1 0 -0 1 0 73.081)" font-size="6.9738" font-family="StandardSymL" font-style="italic"><tspan y="-24.955" x="184.385">&#x03c8;</tspan></text>
<text fill="#191919" xml:space="preserve" transform="matrix(1 0 -0 1 0 73.081)" font-size="4.9813" font-family="NimbusRomNo9L"><tspan y="-23.909" x="189.16899">1</tspan></text>
<text fill="#191919" xml:space="preserve" transform="matrix(1 0 -0 1 0 73.081)" font-size="6.9738" font-family="CMR10"><tspan y="-24.955" x="192.15799">(</tspan></text>
<text fill="#191919" xml:space="preserve" transform="matrix(1 0 -0 1 0 73.081)" font-size="6.9738" font-family="StandardSymL" font-style="italic"><tspan y="-24.955" x="194.86399">&#x03ba;</tspan></text>
<text fill="#191919" xml:space="preserve" transform="matrix(1 0 -0 1 0 73.081)" font-size="4.9813" font-family="NimbusRomNo9L"><tspan y="-23.909" x="198.69298">1</tspan></text>
<text fill="#191919" xml:space="preserve" transform="matrix(1 0 -0 1 0 73.081)" font-size="6.9738" font-family="CMR10"><tspan y="-24.955" x="201.68099">)</tspan></text>
<text fill="#191919" xml:space="preserve" transform="matrix(1 0 -0 1 0 73.081)" font-size="6.9738" font-family="CMMI10" font-style="italic"><tspan y="-24.955" x="204.38698">,</tspan></text>
<text fill="#191919" xml:space="preserve" transform="matrix(1 0 -0 1 0 73.081)" font-size="6.9738" font-family="StandardSymL" font-style="italic"><tspan y="-24.955" x="207.09398">&#x03b8;</tspan></text>
<text fill="#191919" xml:space="preserve" transform="matrix(1 0 -0 1 0 73.081)" font-size="4.9813" font-family="NimbusRomNo9L"><tspan y="-23.909" x="210.72698">1</tspan></text>
<text fill="#191919" xml:space="preserve" transform="matrix(1 0 -0 1 0 73.081)" font-size="6.9738" font-family="CMR10"><tspan y="-24.955" x="213.71598">)</tspan></text>
<path transform="matrix(1,0,0,-1,43.161,36.541)" stroke-width=".79701" stroke-linecap="butt" stroke-miterlimit="10" stroke-linejoin="miter" fill="none" stroke="#333333" d="M82.44806 0V-30.16272H181.89972V-11.94066"/>
<path transform="matrix(0,-1,-1,-0,225.06072,51.11288)" d="M5.95174 0 1.28694 1.76237 2.83046 0 1.28694-1.76237Z" fill="#333333"/>
<path transform="matrix(0,-1,-1,-0,225.06072,51.11288)" stroke-width=".79701" stroke-linecap="butt" stroke-miterlimit="10" stroke-linejoin="miter" fill="none" stroke="#333333" d="M5.95174 0 1.28694 1.76237 2.83046 0 1.28694-1.76237Z"/>
<text fill="#191919" xml:space="preserve" transform="matrix(1 0 -0 1 0 73.081)" font-size="7.9701" font-family="CMMI10" font-style="italic"><tspan y="-36.122" x="250.236 253.32839 256.42875">...</tspan></text>
<path transform="matrix(1,0,0,-1,45.40261,38.78261)" d="M276.38954 7.21669H264.89964C263.24894 7.21669 261.9108 5.87857 261.9108 4.22786V-4.22786C261.9108-5.87857 263.24894-7.21669 264.89964-7.21669H276.38954C278.04026-7.21669 279.37837-5.87857 279.37837-4.22786V4.22786C279.37837 5.87857 278.04026 7.21669 276.38954 7.21669ZM261.9108-7.21669" fill="#7f807f" fill-opacity=".3"/>
<path transform="matrix(1,0,0,-1,43.161,36.541)" d="M276.38954 7.21669H264.89964C263.24894 7.21669 261.9108 5.87857 261.9108 4.22786V-4.22786C261.9108-5.87857 263.24894-7.21669 264.89964-7.21669H276.38954C278.04026-7.21669 279.37837-5.87857 279.37837-4.22786V4.22786C279.37837 5.87857 278.04026 7.21669 276.38954 7.21669ZM261.9108-7.21669" fill="#ffffff"/>
<path transform="matrix(1,0,0,-1,43.161,36.541)" stroke-width=".79701" stroke-linecap="butt" stroke-miterlimit="10" stroke-linejoin="miter" fill="none" stroke="#333333" d="M276.38954 7.21669H264.89964C263.24894 7.21669 261.9108 5.87857 261.9108 4.22786V-4.22786C261.9108-5.87857 263.24894-7.21669 264.89964-7.21669H276.38954C278.04026-7.21669 279.37837-5.87857 279.37837-4.22786V4.22786C279.37837 5.87857 278.04026 7.21669 276.38954 7.21669ZM261.9108-7.21669"/>
<text xml:space="preserve" transform="matrix(1 0 -0 1 0 73.081)" font-size="8.9664" font-family="StandardSymL"><tspan y="-34.438" x="308.389">&#x03a6;</tspan></text>
<text xml:space="preserve" transform="matrix(1 0 -0 1 0 73.081)" font-size="6.9738" font-family="NimbusRomNo9L" font-style="italic"><tspan y="-32.721" x="315.23">b</tspan></text>
<path transform="matrix(1,0,0,-1,45.40261,38.78261)" d="M276.04438 35.27509H265.2448C263.5941 35.27509 262.25599 33.93697 262.25599 32.28625V25.17593C262.25599 23.52522 263.5941 22.1871 265.2448 22.1871H276.04438C277.69508 22.1871 279.0332 23.52522 279.0332 25.17593V32.28625C279.0332 33.93697 277.69508 35.27509 276.04438 35.27509ZM262.25599 22.1871" fill="#7f807f" fill-opacity=".3"/>
<path transform="matrix(1,0,0,-1,43.161,36.541)" d="M276.04438 35.27509H265.2448C263.5941 35.27509 262.25599 33.93697 262.25599 32.28625V25.17593C262.25599 23.52522 263.5941 22.1871 265.2448 22.1871H276.04438C277.69508 22.1871 279.0332 23.52522 279.0332 25.17593V32.28625C279.0332 33.93697 277.69508 35.27509 276.04438 35.27509ZM262.25599 22.1871" fill="#e6e6ff"/>
<path transform="matrix(1,0,0,-1,43.161,36.541)" stroke-width=".79701" stroke-linecap="butt" stroke-miterlimit="10" stroke-linejoin="miter" fill="none" stroke="#333333" d="M276.04438 35.27509H265.2448C263.5941 35.27509 262.25599 33.93697 262.25599 32.28625V25.17593C262.25599 23.52522 263.5941 22.1871 265.2448 22.1871H276.04438C277.69508 22.1871 279.0332 23.52522 279.0332 25.17593V32.28625C279.0332 33.93697 277.69508 35.27509 276.04438 35.27509ZM262.25599 22.1871"/>
<text xml:space="preserve" transform="matrix(1 0 -0 1 0 73.081)" font-size="8.9664" font-family="StandardSymL" font-style="italic"><tspan y="-64.069" x="308.734">&#x03c8;</tspan></text>
<text xml:space="preserve" transform="matrix(1 0 -0 1 0 73.081)" font-size="6.9738" font-family="NimbusRomNo9L" font-style="italic"><tspan y="-62.352" x="314.885">b</tspan></text>
<path transform="matrix(1,0,0,-1,45.40261,38.78261)" d="M339.70384 0C339.70384 3.91391 336.53108 7.08669 332.61717 7.08669 328.70323 7.08669 325.53047 3.91391 325.53047 0 325.53047-3.91391 328.70323-7.08669 332.61717-7.08669 336.53108-7.08669 339.70384-3.91391 339.70384 0ZM332.61717 0" fill="#7f807f" fill-opacity=".3"/>
<path transform="matrix(1,0,0,-1,43.161,36.541)" d="M339.70384 0C339.70384 3.91391 336.53108 7.08669 332.61717 7.08669 328.70323 7.08669 325.53047 3.91391 325.53047 0 325.53047-3.91391 328.70323-7.08669 332.61717-7.08669 336.53108-7.08669 339.70384-3.91391 339.70384 0ZM332.61717 0" fill="#ffffff"/>
<path transform="matrix(1,0,0,-1,43.161,36.541)" stroke-width=".79701" stroke-linecap="butt" stroke-miterlimit="10" stroke-linejoin="miter" fill="none" stroke="#333333" d="M339.70384 0C339.70384 3.91391 336.53108 7.08669 332.61717 7.08669 328.70323 7.08669 325.53047 3.91391 325.53047 0 325.53047-3.91391 328.70323-7.08669 332.61717-7.08669 336.53108-7.08669 339.70384-3.91391 339.70384 0ZM332.61717 0"/>
<text fill="#191919" xml:space="preserve" transform="matrix(1 0 -0 1 0 73.081)" font-size="7.9701" font-family="CMR10"><tspan y="-34.55" x="372.677">+</tspan></text>
<path transform="matrix(1,0,0,-1,43.161,36.541)" stroke-width=".79701" stroke-linecap="butt" stroke-dasharray=".79701,1.99255" stroke-miterlimit="10" stroke-linejoin="miter" fill="none" stroke="#4c4d4c" d="M337.43843 36.14223H234.01392C231.26274 36.14223 229.03253 33.91202 229.03253 31.16084V-31.16084C229.03253-33.91202 231.26274-36.14223 234.01392-36.14223H337.43843C340.18959-36.14223 342.4198-33.91202 342.4198-31.16084V31.16084C342.4198 33.91202 340.18959 36.14223 337.43843 36.14223ZM229.03253-36.14223"/>
<path transform="matrix(1,0,0,-1,43.161,36.541)" stroke-width=".79701" stroke-linecap="butt" stroke-miterlimit="10" stroke-linejoin="miter" fill="none" stroke="#333333" d="M233.1655 0V28.7311H257.402"/>
<path transform="matrix(1,0,0,-1,297.93177,7.8099005)" d="M5.95174 0 1.28694 1.76237 2.83046 0 1.28694-1.76237Z" fill="#333333"/>
<path transform="matrix(1,0,0,-1,297.93177,7.8099005)" stroke-width=".79701" stroke-linecap="butt" stroke-miterlimit="10" stroke-linejoin="miter" fill="none" stroke="#333333" d="M5.95174 0 1.28694 1.76237 2.83046 0 1.28694-1.76237Z"/>
<path transform="matrix(1,0,0,-1,43.161,36.541)" stroke-width=".79701" stroke-linecap="butt" stroke-miterlimit="10" stroke-linejoin="miter" fill="none" stroke="#333333" d="M270.6446 21.78859V12.07066"/>
<path transform="matrix(0,1,1,0,313.8056,21.839112)" d="M5.95174 0 1.28694 1.76237 2.83046 0 1.28694-1.76237Z" fill="#333333"/>
<path transform="matrix(0,1,1,0,313.8056,21.839112)" stroke-width=".79701" stroke-linecap="butt" stroke-miterlimit="10" stroke-linejoin="miter" fill="none" stroke="#333333" d="M5.95174 0 1.28694 1.76237 2.83046 0 1.28694-1.76237Z"/>
<text fill="#191919" xml:space="preserve" transform="matrix(1 0 -0 1 0 73.081)" font-size="6.9738" font-family="StandardSymL" font-style="italic"><tspan y="-49.499" x="320.156">&#x03c8;</tspan></text>
<text fill="#191919" xml:space="preserve" transform="matrix(1 0 -0 1 0 73.081)" font-size="4.9813" font-family="NimbusRomNo9L" font-style="italic"><tspan y="-48.452" x="324.94">b</tspan></text>
<text fill="#191919" xml:space="preserve" transform="matrix(1 0 -0 1 0 73.081)" font-size="6.9738" font-family="CMR10"><tspan y="-49.499" x="327.92903">(</tspan></text>
<text fill="#191919" xml:space="preserve" transform="matrix(1 0 -0 1 0 73.081)" font-size="6.9738" font-family="StandardSymL" font-style="italic"><tspan y="-49.499" x="330.635">&#x03ba;</tspan></text>
<text fill="#191919" xml:space="preserve" transform="matrix(1 0 -0 1 0 73.081)" font-size="4.9813" font-family="NimbusRomNo9L" font-style="italic"><tspan y="-48.452" x="334.46403">b</tspan></text>
<text fill="#191919" xml:space="preserve" transform="matrix(1 0 -0 1 0 73.081)" font-size="6.9738" font-family="CMR10"><tspan y="-49.499" x="337.45204">)</tspan></text>
<path transform="matrix(1,0,0,-1,43.161,36.541)" stroke-width=".79701" stroke-linecap="butt" stroke-miterlimit="10" stroke-linejoin="miter" fill="none" stroke="#333333" d="M279.77687 0H320.67649"/>
<path transform="matrix(1,0,0,-1,361.20628,36.541)" d="M5.95174 0 1.28694 1.76237 2.83046 0 1.28694-1.76237Z" fill="#333333"/>
<path transform="matrix(1,0,0,-1,361.20628,36.541)" stroke-width=".79701" stroke-linecap="butt" stroke-miterlimit="10" stroke-linejoin="miter" fill="none" stroke="#333333" d="M5.95174 0 1.28694 1.76237 2.83046 0 1.28694-1.76237Z"/>
<text fill="#191919" xml:space="preserve" transform="matrix(1 0 -0 1 .000030517579 73.081)" font-size="6.9738" font-family="StandardSymL"><tspan y="-24.955" x="324.085">&#x03a6;</tspan></text>
<text fill="#191919" xml:space="preserve" transform="matrix(1 0 -0 1 .000030517579 73.081)" font-size="4.9813" font-family="NimbusRomNo9L" font-style="italic"><tspan y="-23.909" x="329.406">b</tspan></text>
<text fill="#191919" xml:space="preserve" transform="matrix(1 0 -0 1 .000030517579 73.081)" font-size="6.9738" font-family="CMR10"><tspan y="-24.955" x="332.39503">(</tspan></text>
<text fill="#191919" xml:space="preserve" transform="matrix(1 0 -0 1 .000030517579 73.081)" font-size="6.9738" font-family="StandardSymL" font-style="italic"><tspan y="-24.955" x="335.101">&#x03c8;</tspan></text>
<text fill="#191919" xml:space="preserve" transform="matrix(1 0 -0 1 .000030517579 73.081)" font-size="4.9813" font-family="NimbusRomNo9L" font-style="italic"><tspan y="-23.909" x="339.885">b</tspan></text>
<text fill="#191919" xml:space="preserve" transform="matrix(1 0 -0 1 .000030517579 73.081)" font-size="6.9738" font-family="CMR10"><tspan y="-24.955" x="342.87403">(</tspan></text>
<text fill="#191919" xml:space="preserve" transform="matrix(1 0 -0 1 .000030517579 73.081)" font-size="6.9738" font-family="StandardSymL" font-style="italic"><tspan y="-24.955" x="345.579">&#x03ba;</tspan></text>
<text fill="#191919" xml:space="preserve" transform="matrix(1 0 -0 1 .000030517579 73.081)" font-size="4.9813" font-family="NimbusRomNo9L" font-style="italic"><tspan y="-23.909" x="349.40803">b</tspan></text>
<text fill="#191919" xml:space="preserve" transform="matrix(1 0 -0 1 .000030517579 73.081)" font-size="6.9738" font-family="CMR10"><tspan y="-24.955" x="352.39704">)</tspan></text>
<text fill="#191919" xml:space="preserve" transform="matrix(1 0 -0 1 .000030517579 73.081)" font-size="6.9738" font-family="CMMI10" font-style="italic"><tspan y="-24.955" x="355.10304">,</tspan></text>
<text fill="#191919" xml:space="preserve" transform="matrix(1 0 -0 1 .000030517579 73.081)" font-size="6.9738" font-family="StandardSymL" font-style="italic"><tspan y="-24.955" x="357.80903">&#x03b8;</tspan></text>
<text fill="#191919" xml:space="preserve" transform="matrix(1 0 -0 1 .000030517579 73.081)" font-size="4.9813" font-family="NimbusRomNo9L" font-style="italic"><tspan y="-23.909" x="361.44203">b</tspan></text>
<text fill="#191919" xml:space="preserve" transform="matrix(1 0 -0 1 .000030517579 73.081)" font-size="6.9738" font-family="CMR10"><tspan y="-24.955" x="364.43104">)</tspan></text>
<path transform="matrix(1,0,0,-1,43.161,36.541)" stroke-width=".79701" stroke-linecap="butt" stroke-miterlimit="10" stroke-linejoin="miter" fill="none" stroke="#333333" d="M233.1655 0V-30.16272H332.61717V-11.94066"/>
<path transform="matrix(0,-1,-1,-0,375.77818,51.11288)" d="M5.95174 0 1.28694 1.76237 2.83046 0 1.28694-1.76237Z" fill="#333333"/>
<path transform="matrix(0,-1,-1,-0,375.77818,51.11288)" stroke-width=".79701" stroke-linecap="butt" stroke-miterlimit="10" stroke-linejoin="miter" fill="none" stroke="#333333" d="M5.95174 0 1.28694 1.76237 2.83046 0 1.28694-1.76237Z"/>
<path transform="matrix(1,0,0,-1,43.161,36.541)" stroke-width=".79701" stroke-linecap="butt" stroke-miterlimit="10" stroke-linejoin="miter" fill="none" stroke="#333333" d="M-42.76266 0H-33.04474"/>
<path transform="matrix(1,0,0,-1,7.4850389,36.541)" d="M5.95174 0 1.28694 1.76237 2.83046 0 1.28694-1.76237Z" fill="#333333"/>
<path transform="matrix(1,0,0,-1,7.4850389,36.541)" stroke-width=".79701" stroke-linecap="butt" stroke-miterlimit="10" stroke-linejoin="miter" fill="none" stroke="#333333" d="M5.95174 0 1.28694 1.76237 2.83046 0 1.28694-1.76237Z"/>
<text fill="#191919" xml:space="preserve" transform="matrix(1 0 -0 1 0 73.081)" font-size="6.9738" font-family="StandardSymL" font-style="italic"><tspan y="-41.467" x="3.368">&#x03ba;</tspan></text>
<text fill="#191919" xml:space="preserve" transform="matrix(1 0 -0 1 0 73.081)" font-size="4.9813" font-family="NimbusRomNo9L"><tspan y="-40.420999" x="7.196">0</tspan></text>
<path transform="matrix(1,0,0,-1,43.161,36.541)" stroke-width=".79701" stroke-linecap="butt" stroke-miterlimit="10" stroke-linejoin="miter" fill="none" stroke="#333333" d="M28.58928 0H82.44806"/>
<text fill="#191919" xml:space="preserve" transform="matrix(1 0 -0 1 0 73.08099)" font-size="6.9738" font-family="StandardSymL"><tspan y="-42.392" x="73.634">&#x03a6;</tspan></text>
<text fill="#191919" xml:space="preserve" transform="matrix(1 0 -0 1 0 73.08099)" font-size="4.9813" font-family="NimbusRomNo9L"><tspan y="-41.345998" x="78.955">0</tspan></text>
<text fill="#191919" xml:space="preserve" transform="matrix(1 0 -0 1 0 73.08099)" font-size="6.9738" font-family="CMR10"><tspan y="-42.392" x="81.944">(</tspan></text>
<text fill="#191919" xml:space="preserve" transform="matrix(1 0 -0 1 0 73.08099)" font-size="6.9738" font-family="StandardSymL" font-style="italic"><tspan y="-42.392" x="84.649">&#x03ba;</tspan></text>
<text fill="#191919" xml:space="preserve" transform="matrix(1 0 -0 1 0 73.08099)" font-size="4.9813" font-family="NimbusRomNo9L" font-style="italic"><tspan y="-44.922998" x="89.057">a</tspan></text>
<text fill="#191919" xml:space="preserve" transform="matrix(1 0 -0 1 0 73.08099)" font-size="4.9813" font-family="NimbusRomNo9L"><tspan y="-40.420999" x="88.478">0</tspan></text>
<text fill="#191919" xml:space="preserve" transform="matrix(1 0 -0 1 0 73.08099)" font-size="6.9738" font-family="CMMI10" font-style="italic"><tspan y="-42.392" x="92.046">,</tspan></text>
<text fill="#191919" xml:space="preserve" transform="matrix(1 0 -0 1 0 73.08099)" font-size="6.9738" font-family="StandardSymL" font-style="italic"><tspan y="-42.392" x="94.752">&#x03b8;</tspan></text>
<text fill="#191919" xml:space="preserve" transform="matrix(1 0 -0 1 0 73.08099)" font-size="4.9813" font-family="NimbusRomNo9L"><tspan y="-41.345998" x="98.385">0</tspan></text>
<text fill="#191919" xml:space="preserve" transform="matrix(1 0 -0 1 0 73.08099)" font-size="6.9738" font-family="CMR10"><tspan y="-42.392" x="101.374 105.62801">)=</tspan></text>
<text fill="#191919" xml:space="preserve" transform="matrix(1 0 -0 1 0 73.08099)" font-size="6.9738" font-family="StandardSymL" font-style="italic"><tspan y="-42.392" x="112.598">&#x03ba;</tspan></text>
<text fill="#191919" xml:space="preserve" transform="matrix(1 0 -0 1 0 73.08099)" font-size="4.9813" font-family="NimbusRomNo9L"><tspan y="-41.345998" x="116.427">1</tspan></text>
<path transform="matrix(1,0,0,-1,43.161,36.541)" stroke-width=".79701" stroke-linecap="butt" stroke-miterlimit="10" stroke-linejoin="miter" fill="none" stroke="#333333" d="M189.38492 0H199.10285"/>
<path transform="matrix(1,0,0,-1,239.63262,36.541)" d="M5.95174 0 1.28694 1.76237 2.83046 0 1.28694-1.76237Z" fill="#333333"/>
<path transform="matrix(1,0,0,-1,239.63262,36.541)" stroke-width=".79701" stroke-linecap="butt" stroke-miterlimit="10" stroke-linejoin="miter" fill="none" stroke="#333333" d="M5.95174 0 1.28694 1.76237 2.83046 0 1.28694-1.76237Z"/>
<text fill="#191919" xml:space="preserve" transform="matrix(1 0 -0 1 0 73.081)" font-size="6.9738" font-family="StandardSymL" font-style="italic"><tspan y="-41.389" x="237.89">&#x03ba;</tspan></text>
<text fill="#191919" xml:space="preserve" transform="matrix(1 0 -0 1 0 73.081)" font-size="4.9813" font-family="NimbusRomNo9L"><tspan y="-40.343" x="241.719">2</tspan></text>
<path transform="matrix(1,0,0,-1,43.161,36.541)" stroke-width=".79701" stroke-linecap="butt" stroke-miterlimit="10" stroke-linejoin="miter" fill="none" stroke="#333333" d="M218.9921 0H233.1655"/>
<text fill="#191919" xml:space="preserve" transform="matrix(1 0 -0 1 0 73.081)" font-size="6.9738" font-family="StandardSymL" font-style="italic"><tspan y="-41.444" x="261.969">&#x03ba;</tspan></text>
<text fill="#191919" xml:space="preserve" transform="matrix(1 0 -0 1 0 73.081)" font-size="4.9813" font-family="NimbusRomNo9L" font-style="italic"><tspan y="-40.398" x="265.798">b</tspan></text>
<path transform="matrix(1,0,0,-1,43.161,36.541)" stroke-width=".79701" stroke-linecap="butt" stroke-miterlimit="10" stroke-linejoin="miter" fill="none" stroke="#333333" d="M340.10234 0H354.07215"/>
<path transform="matrix(1,0,0,-1,394.6019,36.541)" d="M5.95174 0 1.28694 1.76237 2.83046 0 1.28694-1.76237Z" fill="#333333"/>
<path transform="matrix(1,0,0,-1,394.6019,36.541)" stroke-width=".79701" stroke-linecap="butt" stroke-miterlimit="10" stroke-linejoin="miter" fill="none" stroke="#333333" d="M5.95174 0 1.28694 1.76237 2.83046 0 1.28694-1.76237Z"/>
<text fill="#191919" xml:space="preserve" transform="matrix(1 0 -0 1 0 73.08099)" font-size="6.9738" font-family="StandardSymL" font-style="italic"><tspan y="-41.795" x="386.803">&#x03ba;</tspan></text>
<text fill="#191919" xml:space="preserve" transform="matrix(1 0 -0 1 0 73.08099)" font-size="4.9813" font-family="NimbusRomNo9L" font-style="italic"><tspan y="-40.748998" x="390.63203">b</tspan></text>
<text fill="#191919" xml:space="preserve" transform="matrix(1 0 -0 1 0 73.08099)" font-size="4.9813" font-family="CMR10"><tspan y="-40.748998" x="393.122">+</tspan></text>
<text fill="#191919" xml:space="preserve" transform="matrix(1 0 -0 1 0 73.08099)" font-size="4.9813" font-family="NimbusRomNo9L"><tspan y="-40.748998" x="396.993">1</tspan></text>
</svg>
